<?xml version="1.0" encoding="UTF-8" standalone="no"?>
<!DOCTYPE svg PUBLIC "-//W3C//DTD SVG 1.1//EN"
 "http://www.w3.org/Graphics/SVG/1.1/DTD/svg11.dtd">
<!-- Generated by graphviz version 2.40.1 (20161225.0304)
 -->
<!-- Title: dependencies Pages: 1 -->
<svg width="1695pt" height="284pt"
 viewBox="0.00 0.00 1695.00 284.00" xmlns="http://www.w3.org/2000/svg" xmlns:xlink="http://www.w3.org/1999/xlink">
<g id="graph0" class="graph" transform="scale(1 1) rotate(0) translate(4 280)">
<title>dependencies</title>
<polygon fill="#ffffff" stroke="transparent" points="-4,4 -4,-280 1691,-280 1691,4 -4,4"/>
<text text-anchor="start" x="822.5091" y="-42.4" font-family="sans-serif" font-weight="bold" font-size="14.00" fill="#000000">Legend</text>
<polygon fill="#ffffb3" stroke="transparent" points="609.5,-10 609.5,-30 629.5,-30 629.5,-10 609.5,-10"/>
<text text-anchor="start" x="633.129" y="-15.4" font-family="sans-serif" font-size="14.00" fill="#000000"> &#160;Declarations</text>
<polygon fill="#8dd3c7" stroke="transparent" points="722.5,-10 722.5,-30 742.5,-30 742.5,-10 722.5,-10"/>
<text text-anchor="start" x="746.2251" y="-15.4" font-family="sans-serif" font-size="14.00" fill="#000000"> &#160;Module</text>
<polygon fill="#80b1d3" stroke="transparent" points="808.5,-10 808.5,-30 828.5,-30 828.5,-10 808.5,-10"/>
<text text-anchor="start" x="832.2812" y="-15.4" font-family="sans-serif" font-size="14.00" fill="#000000"> &#160;Bootstrap</text>
<polygon fill="#fdb462" stroke="transparent" points="905.5,-10 905.5,-30 925.5,-30 925.5,-10 905.5,-10"/>
<text text-anchor="start" x="929.1732" y="-15.4" font-family="sans-serif" font-size="14.00" fill="#000000"> &#160;Providers</text>
<polygon fill="#fb8072" stroke="transparent" points="1001.5,-10 1001.5,-30 1021.5,-30 1021.5,-10 1001.5,-10"/>
<text text-anchor="start" x="1025.2258" y="-15.4" font-family="sans-serif" font-size="14.00" fill="#000000"> &#160;Exports</text>
<g id="clust1" class="cluster">
<title>cluster_AppModule</title>
<polygon fill="none" stroke="#000000" stroke-dasharray="1,5" points="8,-70 8,-268 1679,-268 1679,-70 8,-70"/>
</g>
<g id="clust2" class="cluster">
<title>cluster_AppModule_declarations</title>
<polygon fill="none" stroke="#000000" points="762,-78 762,-130 1671,-130 1671,-78 762,-78"/>
</g>
<g id="clust9" class="cluster">
<title>cluster_AppModule_imports</title>
<polygon fill="none" stroke="#000000" points="220,-78 220,-130 754,-130 754,-78 220,-78"/>
</g>
<g id="clust11" class="cluster">
<title>cluster_AppModule_bootstrap</title>
<polygon fill="none" stroke="#000000" points="788,-208 788,-260 912,-260 912,-208 788,-208"/>
</g>
<g id="clust12" class="cluster">
<title>cluster_AppModule_providers</title>
<polygon fill="none" stroke="#000000" points="16,-78 16,-130 212,-130 212,-78 16,-78"/>
</g>
<!-- AppComponent -->
<g id="node1" class="node">
<title>AppComponent</title>
<polygon fill="#ffffb3" stroke="#000000" points="1662.9399,-122 1557.0601,-122 1557.0601,-86 1662.9399,-86 1662.9399,-122"/>
<text text-anchor="middle" x="1610" y="-99.8" font-family="Times,serif" font-size="14.00" fill="#000000">AppComponent</text>
</g>
<!-- AppModule -->
<g id="node7" class="node">
<title>AppModule</title>
<polygon fill="#8dd3c7" stroke="#000000" points="891.6571,-187 888.6571,-191 867.6571,-191 864.6571,-187 808.3429,-187 808.3429,-151 891.6571,-151 891.6571,-187"/>
<text text-anchor="middle" x="850" y="-164.8" font-family="Times,serif" font-size="14.00" fill="#000000">AppModule</text>
</g>
<!-- AppComponent&#45;&gt;AppModule -->
<g id="edge1" class="edge">
<title>AppComponent&#45;&gt;AppModule</title>
<path fill="none" stroke="#000000" d="M1610,-122.2479C1610,-145.0179 1610,-181 1610,-181 1610,-181 901.6717,-181 901.6717,-181"/>
<polygon fill="#000000" stroke="#000000" points="901.6717,-177.5001 891.6717,-181 901.6716,-184.5001 901.6717,-177.5001"/>
</g>
<!-- HeaderComponent -->
<g id="node2" class="node">
<title>HeaderComponent</title>
<polygon fill="#ffffb3" stroke="#000000" points="1538.7437,-122 1417.2563,-122 1417.2563,-86 1538.7437,-86 1538.7437,-122"/>
<text text-anchor="middle" x="1478" y="-99.8" font-family="Times,serif" font-size="14.00" fill="#000000">HeaderComponent</text>
</g>
<!-- HeaderComponent&#45;&gt;AppModule -->
<g id="edge2" class="edge">
<title>HeaderComponent&#45;&gt;AppModule</title>
<path fill="none" stroke="#000000" d="M1478,-122.2843C1478,-143.3211 1478,-175 1478,-175 1478,-175 901.6912,-175 901.6912,-175"/>
<polygon fill="#000000" stroke="#000000" points="901.6912,-171.5001 891.6912,-175 901.6911,-178.5001 901.6912,-171.5001"/>
</g>
<!-- EmpRecordsComponent -->
<g id="node3" class="node">
<title>EmpRecordsComponent</title>
<polygon fill="#ffffb3" stroke="#000000" points="1398.647,-122 1245.353,-122 1245.353,-86 1398.647,-86 1398.647,-122"/>
<text text-anchor="middle" x="1322" y="-99.8" font-family="Times,serif" font-size="14.00" fill="#000000">EmpRecordsComponent</text>
</g>
<!-- EmpRecordsComponent&#45;&gt;AppModule -->
<g id="edge3" class="edge">
<title>EmpRecordsComponent&#45;&gt;AppModule</title>
<path fill="none" stroke="#000000" d="M1322,-122.1061C1322,-141.3391 1322,-169 1322,-169 1322,-169 901.8869,-169 901.8869,-169"/>
<polygon fill="#000000" stroke="#000000" points="901.8869,-165.5001 891.8869,-169 901.8868,-172.5001 901.8869,-165.5001"/>
</g>
<!-- FooterComponent -->
<g id="node4" class="node">
<title>FooterComponent</title>
<polygon fill="#ffffb3" stroke="#000000" points="1226.8809,-122 1109.1191,-122 1109.1191,-86 1226.8809,-86 1226.8809,-122"/>
<text text-anchor="middle" x="1168" y="-99.8" font-family="Times,serif" font-size="14.00" fill="#000000">FooterComponent</text>
</g>
<!-- FooterComponent&#45;&gt;AppModule -->
<g id="edge4" class="edge">
<title>FooterComponent&#45;&gt;AppModule</title>
<path fill="none" stroke="#000000" d="M1168,-122.0225C1168,-139.3734 1168,-163 1168,-163 1168,-163 901.8999,-163 901.8999,-163"/>
<polygon fill="#000000" stroke="#000000" points="901.9,-159.5001 891.8999,-163 901.8999,-166.5001 901.9,-159.5001"/>
</g>
<!-- SearchBoxComponent -->
<g id="node5" class="node">
<title>SearchBoxComponent</title>
<polygon fill="#ffffb3" stroke="#000000" points="1091.2562,-122 948.7438,-122 948.7438,-86 1091.2562,-86 1091.2562,-122"/>
<text text-anchor="middle" x="1020" y="-99.8" font-family="Times,serif" font-size="14.00" fill="#000000">SearchBoxComponent</text>
</g>
<!-- SearchBoxComponent&#45;&gt;AppModule -->
<g id="edge5" class="edge">
<title>SearchBoxComponent&#45;&gt;AppModule</title>
<path fill="none" stroke="#000000" d="M1020,-122.2396C1020,-137.5706 1020,-157 1020,-157 1020,-157 902.0225,-157 902.0225,-157"/>
<polygon fill="#000000" stroke="#000000" points="902.0225,-153.5001 892.0225,-157 902.0224,-160.5001 902.0225,-153.5001"/>
</g>
<!-- SearchResultsComponent -->
<g id="node6" class="node">
<title>SearchResultsComponent</title>
<polygon fill="#ffffb3" stroke="#000000" points="930.1414,-122 769.8586,-122 769.8586,-86 930.1414,-86 930.1414,-122"/>
<text text-anchor="middle" x="850" y="-99.8" font-family="Times,serif" font-size="14.00" fill="#000000">SearchResultsComponent</text>
</g>
<!-- SearchResultsComponent&#45;&gt;AppModule -->
<g id="edge6" class="edge">
<title>SearchResultsComponent&#45;&gt;AppModule</title>
<path fill="none" stroke="#000000" d="M850,-122.1061C850,-122.1061 850,-140.991 850,-140.991"/>
<polygon fill="#000000" stroke="#000000" points="846.5001,-140.9909 850,-150.991 853.5001,-140.991 846.5001,-140.9909"/>
</g>
<!-- AppComponent  -->
<g id="node12" class="node">
<title>AppComponent </title>
<polygon fill="#80b1d3" stroke="#000000" points="904.439,-252 795.561,-252 795.561,-216 904.439,-216 904.439,-252"/>
<text text-anchor="middle" x="850" y="-229.8" font-family="Times,serif" font-size="14.00" fill="#000000">AppComponent </text>
</g>
<!-- AppModule&#45;&gt;AppComponent  -->
<g id="edge11" class="edge">
<title>AppModule&#45;&gt;AppComponent </title>
<path fill="none" stroke="#000000" stroke-dasharray="1,5" d="M850,-187.1061C850,-187.1061 850,-205.991 850,-205.991"/>
<polygon fill="#000000" stroke="#000000" points="846.5001,-205.9909 850,-215.991 853.5001,-205.991 846.5001,-205.9909"/>
</g>
<!-- BrowserModule -->
<g id="node8" class="node">
<title>BrowserModule</title>
<polygon fill="#8dd3c7" stroke="#000000" points="746.4734,-122 743.4734,-126 722.4734,-126 719.4734,-122 639.5266,-122 639.5266,-86 746.4734,-86 746.4734,-122"/>
<text text-anchor="middle" x="693" y="-99.8" font-family="Times,serif" font-size="14.00" fill="#000000">BrowserModule</text>
</g>
<!-- BrowserModule&#45;&gt;AppModule -->
<g id="edge7" class="edge">
<title>BrowserModule&#45;&gt;AppModule</title>
<path fill="none" stroke="#000000" d="M693,-122.2396C693,-137.5706 693,-157 693,-157 693,-157 798.3391,-157 798.3391,-157"/>
<polygon fill="#000000" stroke="#000000" points="798.3391,-160.5001 808.3391,-157 798.339,-153.5001 798.3391,-160.5001"/>
</g>
<!-- FormsModule -->
<g id="node9" class="node">
<title>FormsModule</title>
<polygon fill="#8dd3c7" stroke="#000000" points="621.8288,-122 618.8288,-126 597.8288,-126 594.8288,-122 526.1712,-122 526.1712,-86 621.8288,-86 621.8288,-122"/>
<text text-anchor="middle" x="574" y="-99.8" font-family="Times,serif" font-size="14.00" fill="#000000">FormsModule</text>
</g>
<!-- FormsModule&#45;&gt;AppModule -->
<g id="edge8" class="edge">
<title>FormsModule&#45;&gt;AppModule</title>
<path fill="none" stroke="#000000" d="M574,-122.0225C574,-139.3734 574,-163 574,-163 574,-163 798.0815,-163 798.0815,-163"/>
<polygon fill="#000000" stroke="#000000" points="798.0816,-166.5001 808.0815,-163 798.0815,-159.5001 798.0816,-166.5001"/>
</g>
<!-- HttpModule -->
<g id="node10" class="node">
<title>HttpModule</title>
<polygon fill="#8dd3c7" stroke="#000000" points="508.4387,-122 505.4387,-126 484.4387,-126 481.4387,-122 423.5613,-122 423.5613,-86 508.4387,-86 508.4387,-122"/>
<text text-anchor="middle" x="466" y="-99.8" font-family="Times,serif" font-size="14.00" fill="#000000">HttpModule</text>
</g>
<!-- HttpModule&#45;&gt;AppModule -->
<g id="edge9" class="edge">
<title>HttpModule&#45;&gt;AppModule</title>
<path fill="none" stroke="#000000" d="M466,-122.1061C466,-141.3391 466,-169 466,-169 466,-169 798.1743,-169 798.1743,-169"/>
<polygon fill="#000000" stroke="#000000" points="798.1743,-172.5001 808.1743,-169 798.1742,-165.5001 798.1743,-172.5001"/>
</g>
<!-- RouterModule.forRoot(args) -->
<g id="node11" class="node">
<title>RouterModule.forRoot(args)</title>
<polygon fill="#8dd3c7" stroke="#000000" points="405.8419,-122 402.8419,-126 381.8419,-126 378.8419,-122 228.1581,-122 228.1581,-86 405.8419,-86 405.8419,-122"/>
<text text-anchor="middle" x="317" y="-99.8" font-family="Times,serif" font-size="14.00" fill="#000000">RouterModule.forRoot(args)</text>
</g>
<!-- RouterModule.forRoot(args)&#45;&gt;AppModule -->
<g id="edge10" class="edge">
<title>RouterModule.forRoot(args)&#45;&gt;AppModule</title>
<path fill="none" stroke="#000000" d="M317,-122.2843C317,-143.3211 317,-175 317,-175 317,-175 798.1764,-175 798.1764,-175"/>
<polygon fill="#000000" stroke="#000000" points="798.1764,-178.5001 808.1764,-175 798.1763,-171.5001 798.1764,-178.5001"/>
</g>
<!-- EmpRecordsService -->
<g id="node13" class="node">
<title>EmpRecordsService</title>
<ellipse fill="#fdb462" stroke="#000000" cx="114" cy="-104" rx="89.746" ry="18"/>
<text text-anchor="middle" x="114" y="-99.8" font-family="Times,serif" font-size="14.00" fill="#000000">EmpRecordsService</text>
</g>
<!-- EmpRecordsService&#45;&gt;AppModule -->
<g id="edge12" class="edge">
<title>EmpRecordsService&#45;&gt;AppModule</title>
<path fill="none" stroke="#000000" d="M114,-122.2479C114,-145.0179 114,-181 114,-181 114,-181 798.3207,-181 798.3207,-181"/>
<polygon fill="#000000" stroke="#000000" points="798.3207,-184.5001 808.3207,-181 798.3206,-177.5001 798.3207,-184.5001"/>
</g>
</g>
</svg>
